<?xml version="1.0" encoding="UTF-8" standalone="no"?>
<!-- Created with Inkscape (http://www.inkscape.org/) -->

<svg
   width="529.18555mm"
   height="85.714577mm"
   viewBox="0 0 529.18555 85.714577"
   version="1.1"
   id="svg5"
   xmlns="http://www.w3.org/2000/svg"
   xmlns:svg="http://www.w3.org/2000/svg">
  <defs
     id="defs2" />
  <g
     id="layer1"
     transform="translate(-365.28773,96.504471)">
    <g
       id="g5471">
      <rect
         style="fill:#ffffff;fill-opacity:1;stroke-width:1;stroke-linecap:square;stroke-linejoin:round;paint-order:stroke fill markers;stop-color:#000000"
         id="rect5365"
         width="377.7088"
         height="63.453896"
         x="446.69598"
         y="-82.65921"
         ry="13.231204" />
      <path
         style="fill:#646464;fill-opacity:1;stroke-width:1"
         d="m 376.28144,-11.152318 c -5.33741,-0.88652 -9.5697,-5.16329 -10.59425,-10.70559 -0.53206,-2.87816 -0.53286,-60.628569 -8.9e-4,-63.532618 1.02918,-5.618256 5.0804,-9.662252 10.72481,-10.705678 2.94798,-0.544964 504.00711,-0.544054 506.95514,9.2e-4 5.70145,1.053971 9.80524,5.229892 10.72786,10.916414 0.50557,3.116138 0.50557,60.007352 0,63.123492 -0.93877,5.7861 -5.15323,9.98867 -10.96218,10.93125 -2.8587,0.46386 -504.05584,0.43598 -506.85049,-0.0282 z m 367.14294,-21.09181 -0.13935,-8.08394 1.37149,1.23906 c 1.96766,1.77765 3.52362,2.33295 6.58524,2.35014 3.39954,0.0191 5.70889,-0.95026 7.93591,-3.3311 2.72873,-2.91725 3.83293,-6.48362 3.81205,-12.312433 -0.0268,-7.474126 -2.22039,-12.143732 -6.74501,-14.358292 -1.67524,-0.819933 -2.4426,-0.977409 -4.67335,-0.95903 -3.17758,0.02618 -5.11101,0.821818 -7.20291,2.964092 l -1.38385,1.417197 -0.55746,-1.852122 -0.55749,-1.852122 -3.42784,-0.100969 -3.42783,-0.10097 v 21.532219 21.53222 h 4.27489 4.27489 z m 2.94636,-11.90994 c -0.68054,-0.33538 -1.48921,-1.17744 -1.94028,-2.02044 -0.68647,-1.2829 -0.77343,-1.98081 -0.77343,-6.207893 0,-3.849761 0.11698,-4.976262 0.61031,-5.877877 1.02559,-1.874344 2.23816,-2.588789 4.39367,-2.588789 2.46465,0 3.79211,0.711972 4.78215,2.564909 0.70566,1.320709 0.79721,1.998391 0.79721,5.901757 0,3.848253 -0.10012,4.612833 -0.78627,6.004923 -0.43244,0.87737 -1.25067,1.86956 -1.81833,2.20487 -1.29272,0.76363 -3.73567,0.77224 -5.26503,0.0186 z m 31.61845,11.90018 -0.15356,-8.09372 1.38229,1.24883 c 1.97862,1.78756 3.53024,2.34269 6.59606,2.35991 3.2614,0.0183 5.59566,-0.90884 7.68452,-3.05223 3.09432,-3.17512 4.13202,-6.89369 3.87767,-13.895857 -0.18973,-5.222688 -0.86847,-7.477644 -3.10106,-10.302084 -2.00456,-2.535927 -4.64189,-3.739434 -8.13153,-3.710684 -3.18562,0.02625 -5.11281,0.822596 -7.21946,2.983165 l -1.40042,1.43627 -0.54451,-1.871195 -0.54451,-1.871195 -3.42424,-0.100969 -3.42424,-0.10097 v 21.532219 21.53222 h 4.27828 4.27828 z m 2.99427,-11.82653 c -1.91576,-0.83316 -2.69839,-2.86397 -2.86208,-7.42692 -0.16792,-4.679482 0.26416,-6.569937 1.8681,-8.173894 1.0463,-1.046317 1.37523,-1.167835 3.16092,-1.167835 3.97944,0 5.47769,1.881582 5.75864,7.231944 0.23714,4.515815 -0.35274,7.042065 -2.03764,8.726995 -1.17751,1.17749 -1.52086,1.32562 -3.04441,1.31336 -0.94445,-0.008 -2.22401,-0.23423 -2.84353,-0.50365 z m -296.21451,7.21443 c 1.91233,-0.19723 4.82634,-0.71316 6.47557,-1.14653 l 2.99861,-0.78794 0.0935,-10.32551 0.0935,-10.325514 -7.85464,0.09496 -7.85465,0.09496 v 3.527777 3.527778 l 3.61597,0.100529 3.61598,0.10054 v 3.82707 c 0,4.4698 0.22707,4.25067 -4.40973,4.25535 -3.89991,0.004 -5.25275,-0.44987 -7.22725,-2.42437 -1.90013,-1.90013 -2.76765,-4.04585 -3.18951,-7.888833 -0.7815,-7.119288 1.94744,-12.835869 7.04794,-14.764 2.61862,-0.989912 7.97504,-0.805545 11.07464,0.381187 1.1341,0.434209 2.19225,0.653272 2.35231,0.486989 0.16002,-0.166231 0.84993,-1.651614 1.53314,-3.30085 l 1.24219,-2.998611 -1.34218,-0.58274 c -4.26267,-1.850729 -12.34349,-2.425577 -16.93112,-1.204437 -6.89521,1.835371 -11.6748,6.631089 -13.24417,13.28883 -0.6729,2.854645 -0.69345,9.608773 -0.0385,12.663615 1.86034,8.67746 7.72636,13.31023 17.36224,13.71208 0.61003,0.0254 2.67378,-0.11511 4.58611,-0.31233 z m 30.52519,0.004 c 3.76241,-0.54421 6.20506,-1.63199 8.24462,-3.67155 2.15748,-2.1575 2.98354,-4.27119 2.98354,-7.63418 0,-5.625382 -2.05952,-7.999538 -10.81122,-12.462879 -4.79404,-2.444946 -5.76933,-3.328868 -5.76933,-5.228817 0,-0.762409 0.16345,-1.691618 0.36323,-2.064909 1.08683,-2.030769 5.44875,-2.333014 10.2201,-0.708168 1.64924,0.561635 3.10465,0.915441 3.23426,0.786237 0.1296,-0.129205 0.79239,-1.584293 1.47286,-3.233529 1.41446,-3.428179 1.57607,-3.112583 -2.2624,-4.418131 -3.8255,-1.301138 -7.58997,-1.739104 -10.81954,-1.258767 -4.75192,0.706761 -7.64189,2.459654 -9.4567,5.735911 -0.94912,1.713428 -1.04209,2.18026 -1.04209,5.232654 0,3.056716 0.0922,3.517777 1.04814,5.243766 1.39371,2.516308 3.11906,3.859862 8.72435,6.793784 6.33598,3.316378 7.62532,4.795758 6.50875,7.468088 -0.76007,1.8191 -2.19971,2.44383 -5.58054,2.42166 -2.25491,-0.0148 -3.4508,-0.25673 -6.38487,-1.29169 -1.98565,-0.70042 -3.89348,-1.36364 -4.2396,-1.47382 -0.58262,-0.18547 -0.6219,0.0976 -0.52917,3.81269 l 0.10016,4.01302 2.46944,0.82474 c 3.95725,1.32162 7.63354,1.6769 11.52601,1.11387 z m 39.3567,-0.36965 c 4.05744,-0.90929 7.52531,-3.6248 9.34332,-7.31627 l 1.15731,-2.34995 0.10276,-14.736798 0.10277,-14.736793 h -4.23255 -4.23254 l -0.10355,13.846527 -0.10356,13.846524 -0.88194,1.5875 c -1.33869,2.40965 -3.24632,3.26312 -6.90642,3.08993 -3.4255,-0.16208 -5.06465,-1.00551 -6.24552,-3.21367 -0.76451,-1.42959 -0.78528,-1.78692 -0.88983,-15.310284 l -0.10704,-13.846527 h -4.23257 -4.23256 l 0.10759,14.552083 c 0.1067,14.432938 0.11454,14.569408 0.95734,16.668748 1.18304,2.94683 4.38535,6.12795 7.24408,7.19615 1.15459,0.43142 2.98021,0.92384 4.05695,1.09426 2.17206,0.34379 6.73611,0.15741 9.09596,-0.37144 z m 35.01869,0.35012 c 1.26118,-0.20275 3.12649,-0.74839 4.14514,-1.21254 l 1.85208,-0.84391 v -3.5473 c 0,-1.95101 -0.054,-3.54729 -0.12004,-3.54729 -0.066,0 -1.09032,0.48485 -2.2762,1.07744 -1.51484,0.75698 -2.8842,1.13848 -4.60387,1.28265 -3.04176,0.25502 -3.94798,0.0342 -5.51807,-1.34431 -1.7547,-1.54065 -2.44306,-4.07723 -2.21099,-8.147418 0.31012,-5.438916 2.14849,-7.685031 6.28997,-7.685031 1.08831,0 2.90157,0.3175 4.02948,0.705555 1.1279,0.388056 2.22878,0.705556 2.44639,0.705556 0.50852,0 2.79573,-6.016505 2.42167,-6.370191 -0.15508,-0.146621 -1.31383,-0.580073 -2.57501,-0.963225 -6.60344,-2.006156 -13.61797,-0.83935 -17.20973,2.862688 -2.82316,2.909838 -3.94644,6.289597 -3.95275,11.893136 -0.004,3.92162 0.54403,6.77524 1.76041,9.15954 2.42116,4.74586 8.53235,7.09822 15.52152,5.97465 z m 27.86944,0.009 c 4.91651,-0.77154 9.04426,-3.89253 10.58124,-8.00048 1.92852,-5.15443 1.7299,-10.88997 -0.53733,-15.51598 -3.14003,-6.406872 -10.51837,-8.972512 -18.42716,-6.407601 -5.89311,1.911201 -9.4155,8.425331 -8.76614,16.211661 0.62132,7.45013 4.39798,12.13016 10.93653,13.55251 2.70359,0.58811 3.37413,0.60537 6.21286,0.15989 z m -5.57658,-7.26194 c -0.67394,-0.34342 -1.46701,-1.18292 -1.87737,-1.9873 -1.37813,-2.70135 -1.45809,-9.234464 -0.14686,-11.997688 0.9717,-2.047691 2.57051,-2.840041 5.37089,-2.661726 2.12943,0.135594 2.41566,0.252071 3.48392,1.417747 1.49021,1.626098 1.91707,3.219792 1.91707,7.157473 0,3.937684 -0.42686,5.531374 -1.91707,7.157474 -1.06822,1.16564 -1.34879,1.27982 -3.4138,1.38932 -1.60552,0.0851 -2.58412,-0.051 -3.41678,-0.4753 z m 81.32395,7.03799 c 2.26678,-1.07566 3.1045,-3.4443 2.08289,-5.88936 -1.48576,-3.55592 -6.05371,-3.89579 -8.24018,-0.61309 -2.654,3.98462 1.72279,8.60676 6.15729,6.50245 z m 18.98976,0.20348 c 2.57352,-0.47574 3.68732,-1.03802 5.66231,-2.8585 l 1.54096,-1.42043 0.36844,1.00938 c 1.16759,3.19902 0.81944,2.94964 4.11805,2.94964 h 2.97741 l -0.10979,-11.72986 -0.10978,-11.72986 -1.05833,-1.913075 c -2.02283,-3.65655 -5.33273,-5.134629 -11.46528,-5.119971 -2.03729,0.0049 -4.57729,0.222867 -5.64445,0.484437 -2.07462,0.508512 -5.64444,1.966098 -5.64444,2.304669 0,0.171587 2.42012,5.145929 2.61707,5.37915 0.0357,0.04228 1.24741,-0.341594 2.69267,-0.853055 1.92965,-0.682879 3.36157,-0.937608 5.3899,-0.958822 2.6887,-0.02812 2.78953,0.0017 3.79236,1.123206 0.80268,0.89765 1.03022,1.489703 1.03022,2.680761 v 1.528668 l -4.49792,0.218556 c -2.47385,0.120206 -5.29166,0.437462 -6.2618,0.705019 -5.57753,1.538221 -7.8958,4.636747 -7.50828,10.035297 0.3215,4.47878 2.57318,7.15134 6.87945,8.16535 1.87344,0.44115 2.84239,0.44104 5.23123,-7e-4 z m -1.79243,-6.30003 c -1.18592,-0.4807 -1.69284,-1.38105 -1.69284,-3.0067 0,-3.03496 1.75437,-4.26926 6.59718,-4.64151 l 3.04541,-0.23409 v 2.08602 c 0,2.70246 -0.83458,4.27597 -2.82667,5.32942 -1.54619,0.81764 -3.75998,1.01938 -5.12308,0.46686 z m -66.13359,-9.012994 v -14.993055 h -4.23333 -4.23333 v 14.993055 14.993054 h 4.23333 4.23333 z m 16.58056,6.927314 c 0,-4.43615 0.15686,-8.892872 0.34859,-9.90382 0.80144,-4.225995 2.28833,-5.663043 5.8617,-5.66523 1.7794,-0.0011 2.3105,0.144321 3.05827,0.837336 1.47206,1.364255 1.66347,2.879442 1.66558,13.184264 l 0.002,9.61319 h 4.23334 4.23333 v -10.6856 c 0,-11.819525 -0.26253,-13.858513 -2.07626,-16.125509 -2.1139,-2.642191 -4.66563,-3.692254 -8.85985,-3.645912 -3.27518,0.03619 -6.08794,1.037694 -7.76028,2.763112 -0.65867,0.679567 -1.30935,1.235578 -1.44596,1.235578 -0.13662,0 -0.43881,-0.79375 -0.67154,-1.763889 l -0.42315,-1.763889 h -3.3162 -3.31621 v 14.993055 14.993054 h 4.23334 4.23333 z m -18.07107,-26.155183 c 1.39694,-0.851715 1.96452,-2.176119 1.72325,-4.021097 -0.26772,-2.047278 -1.5114,-3.11108 -3.86532,-3.306286 -2.67047,-0.221456 -4.33881,0.597778 -4.87726,2.39497 -0.69984,2.335872 0.24332,4.68971 2.15984,5.390308 1.24801,0.456216 3.74631,0.220809 4.85949,-0.457895 z"
         id="path1070" />
    </g>
  </g>
</svg>
